<svg width="22" height="27" viewBox="0 0 22 27" fill="none" xmlns="http://www.w3.org/2000/svg">
<path d="M10.9999 26.3333C12.4666 26.3333 13.6666 25.1333 13.6666 23.6667H8.33325C8.33325 24.3739 8.6142 25.0522 9.1143 25.5523C9.6144 26.0524 10.2927 26.3333 10.9999 26.3333ZM18.9999 18.3333V11.6667C18.9999 7.57334 16.8133 4.14668 12.9999 3.24001V2.33334C12.9999 1.22668 12.1066 0.333344 10.9999 0.333344C9.89325 0.333344 8.99992 1.22668 8.99992 2.33334V3.24001C5.17325 4.14668 2.99992 7.56001 2.99992 11.6667V18.3333L0.333252 21V22.3333H21.6666V21L18.9999 18.3333Z" fill="#828282"/>
</svg>
